<svg width="25" height="25" viewBox="0 0 25 25" fill="none" xmlns="http://www.w3.org/2000/svg">
<path d="M21.57 15.3162C21.45 14.4825 20.8063 13.8325 19.9775 13.6388C16.7563 12.8837 15.9488 11.0288 15.8125 8.97125C15.2413 8.865 14.225 8.75 12.5 8.75C10.775 8.75 9.75875 8.865 9.1875 8.97125C9.05126 11.0288 8.24376 12.8837 5.02251 13.6388C4.19376 13.8338 3.55001 14.4825 3.43001 15.3162L2.80876 19.6187C2.59001 21.1337 3.7025 22.5 5.25 22.5H19.75C21.2963 22.5 22.41 21.1337 22.1913 19.6187L21.57 15.3162ZM12.5 19.365C10.7563 19.365 9.34251 17.965 9.34251 16.24C9.34251 14.515 10.7563 13.115 12.5 13.115C14.2438 13.115 15.6575 14.515 15.6575 16.24C15.6575 17.965 14.2425 19.365 12.5 19.365ZM24.9375 7.5C24.9075 5.625 20.135 2.50125 12.5 2.5C4.86376 2.50125 0.0912553 5.625 0.0625053 7.5C0.0337553 9.375 0.0887554 11.815 3.23126 11.4087C6.90751 10.9325 6.68125 9.64875 6.68125 7.81375C6.68125 6.53375 9.67126 6.225 12.5 6.225C15.3288 6.225 18.3175 6.53375 18.3188 7.81375C18.3188 9.64875 18.0925 10.9325 21.7688 11.4087C24.91 11.815 24.9663 9.375 24.9375 7.5Z" fill="#4E4D4D"/>
</svg>
