<svg width="25" height="25" viewBox="0 0 25 25" fill="none" xmlns="http://www.w3.org/2000/svg">
<path d="M20.3198 15.0937C21.001 13.8144 21.3563 12.3868 21.3542 10.9374C21.3542 6.04731 17.3901 2.08325 12.5 2.08325C7.60989 2.08325 3.64583 6.04731 3.64583 10.9374C3.64224 13.0261 4.38056 15.0482 5.72916 16.6431L5.73958 16.6562C5.74322 16.6593 5.74635 16.6635 5.74895 16.6666H5.72916L10.9833 22.2447C11.1781 22.4515 11.4131 22.6162 11.6739 22.7288C11.9346 22.8414 12.2157 22.8995 12.4997 22.8995C12.7838 22.8995 13.0648 22.8414 13.3256 22.7288C13.5864 22.6162 13.8214 22.4515 14.0161 22.2447L19.2708 16.6666H19.251L19.2594 16.6567L19.2604 16.6556C19.2979 16.6109 19.3354 16.5661 19.3724 16.5202C19.7336 16.0762 20.0511 15.5983 20.3203 15.0931L20.3198 15.0937ZM12.5021 14.3228C11.6733 14.3228 10.8784 13.9936 10.2924 13.4075C9.70632 12.8215 9.37708 12.0266 9.37708 11.1978C9.37708 10.369 9.70632 9.57418 10.2924 8.98813C10.8784 8.40207 11.6733 8.07283 12.5021 8.07283C13.3309 8.07283 14.1257 8.40207 14.7118 8.98813C15.2978 9.57418 15.6271 10.369 15.6271 11.1978C15.6271 12.0266 15.2978 12.8215 14.7118 13.4075C14.1257 13.9936 13.3309 14.3228 12.5021 14.3228Z" fill="#4E4D4D"/>
</svg>
