<svg width="25" height="21" viewBox="0 0 25 21" fill="none" xmlns="http://www.w3.org/2000/svg">
<path fill-rule="evenodd" clip-rule="evenodd" d="M0.25 1.75C0.25 1.28587 0.434374 0.840752 0.762563 0.512563C1.09075 0.184375 1.53587 0 2 0H23C23.4641 0 23.9092 0.184375 24.2374 0.512563C24.5656 0.840752 24.75 1.28587 24.75 1.75C24.75 2.21413 24.5656 2.65925 24.2374 2.98744C23.9092 3.31563 23.4641 3.5 23 3.5H2C1.53587 3.5 1.09075 3.31563 0.762563 2.98744C0.434374 2.65925 0.25 2.21413 0.25 1.75Z" fill="#2B66FE"/>
<path fill-rule="evenodd" clip-rule="evenodd" d="M0.25 10.5C0.25 10.0359 0.434374 9.59075 0.762563 9.26256C1.09075 8.93437 1.53587 8.75 2 8.75H23C23.4641 8.75 23.9092 8.93437 24.2374 9.26256C24.5656 9.59075 24.75 10.0359 24.75 10.5C24.75 10.9641 24.5656 11.4092 24.2374 11.7374C23.9092 12.0656 23.4641 12.25 23 12.25H2C1.53587 12.25 1.09075 12.0656 0.762563 11.7374C0.434374 11.4092 0.25 10.9641 0.25 10.5Z" fill="#2B66FE"/>
<path fill-rule="evenodd" clip-rule="evenodd" d="M10.75 19.25C10.75 18.7859 10.9344 18.3408 11.2626 18.0126C11.5908 17.6844 12.0359 17.5 12.5 17.5H23C23.4641 17.5 23.9092 17.6844 24.2374 18.0126C24.5656 18.3408 24.75 18.7859 24.75 19.25C24.75 19.7141 24.5656 20.1592 24.2374 20.4874C23.9092 20.8156 23.4641 21 23 21H12.5C12.0359 21 11.5908 20.8156 11.2626 20.4874C10.9344 20.1592 10.75 19.7141 10.75 19.25Z" fill="#2B66FE"/>
</svg>
