<svg width="99" height="47" viewBox="0 0 99 47" fill="none" xmlns="http://www.w3.org/2000/svg">
<g clip-path="url(#clip0)">
<path d="M61.1748 14.2803L61.0776 14.1528V24.3343H55.6184V1.62494H61.0776V11.7408L61.1748 11.6132L68.7741 1.62494H75.1788L66.3928 12.7187L66.3694 12.7496L66.3928 12.7844L75.5056 24.3343H68.8402L61.1748 14.2803Z" fill="#4E4D4D"/>
<path d="M83.7624 10.3144V24.3343H78.3032V1.62494H83.7857L93.0815 15.7376L93.1787 15.8883V1.62494H98.6379V24.3343H93.1515L83.8597 10.2835L83.7624 10.1366V10.3144Z" fill="#4E4D4D"/>
<path d="M41.0347 36.0659L41.023 36.0311H36.9841L36.9685 36.0659L36.2214 38.0952H35.4121L38.5522 29.6106H39.4627L42.5911 38.0952H41.7818L41.0347 36.0659ZM40.7234 35.4126H40.8012L40.774 35.343L39.0541 30.6349L39.0036 30.4996L38.953 30.6349L37.2331 35.343L37.2059 35.4126H40.7234Z" fill="#EE6F57" stroke="#EE6F57" stroke-width="0.18595"/>
<path d="M59.7395 36.0659L59.724 36.0311H55.685L55.6734 36.0659L54.9263 38.0952H54.1169L57.257 29.6106H58.1675L61.2959 38.0952H60.4866L59.7395 36.0659ZM59.4243 35.4126H59.5022L59.4749 35.343L57.7551 30.6349L57.7045 30.4996L57.6539 30.6349L55.9341 35.343L55.9068 35.4126H59.4243Z" fill="#EE6F57" stroke="#EE6F57" stroke-width="0.18595"/>
<path d="M69.4088 31.0988C68.759 30.4416 67.8174 30.1169 66.5956 30.1169H64.8329V37.4806H66.5956C67.8174 37.4806 68.759 37.1597 69.4088 36.5142C70.0547 35.8648 70.3777 34.9642 70.3777 33.8162C70.3777 32.6604 70.0547 31.752 69.4088 31.0988ZM69.0508 30.0164C69.7318 30.3605 70.2532 30.8552 70.6112 31.5046C70.973 32.1502 71.1559 32.9194 71.1559 33.8162C71.1559 34.7052 70.973 35.4706 70.6112 36.1122C70.2532 36.7539 69.7318 37.2448 69.0508 37.5849C68.3699 37.9251 67.5528 38.0952 66.5956 38.0952H64.0664V29.4985H66.5956C67.5528 29.5023 68.3699 29.6724 69.0508 30.0164Z" fill="#EE6F57" stroke="#EE6F57" stroke-width="0.18595"/>
<path d="M74.8835 33.4064V33.4605H78.187V34.0751H74.8835V37.4806H78.5605V38.0952H74.1169V29.4869H78.5605V30.1015H74.8835V33.4064Z" fill="#EE6F57" stroke="#EE6F57" stroke-width="0.18595"/>
<path d="M89.1987 29.6106H90.0431V38.0952H89.2804V31.2882L89.1754 31.2689L86.1209 38.0952H85.5567L82.5022 31.2921L82.4011 31.3152V38.0952H81.6345V29.6106H82.4711L85.7863 37.0245L85.833 37.1366L85.8836 37.0245L89.1987 29.6106Z" fill="#EE6F57" stroke="#EE6F57" stroke-width="0.18595"/>
<path d="M99 29.5024L96.249 34.74L96.2413 34.7516V38.0952H95.4747V34.7516L95.4708 34.74L92.6926 29.5024H93.5564L95.8094 33.9901L95.8599 34.0868L95.9066 33.9901L98.1479 29.5024H99Z" fill="#EE6F57" stroke="#EE6F57" stroke-width="0.18595"/>
<path d="M50.6929 33.9437C50.6929 35.1497 49.7123 36.1277 48.5061 36.1277C47.296 36.1277 46.3193 35.1497 46.3193 33.9437C46.3193 32.7377 47.296 31.7598 48.5061 31.7598C49.7123 31.7598 50.6929 32.7377 50.6929 33.9437Z" fill="url(#paint0_linear)" stroke="#EE6F57" stroke-width="0.18595"/>
<path d="M6.1323 34.6511C6.10117 34.6472 6.06615 34.6472 6.03113 34.6472C5.94553 34.6472 5.85993 34.6511 5.77432 34.6549C5.77043 34.6549 5.76265 34.6549 5.75876 34.6549C3.10895 34.798 1 36.9897 1 39.6723C1 42.3587 3.10895 44.5504 5.75876 44.6896C5.76265 44.6935 5.77043 44.6935 5.77432 44.6935C5.85993 44.6973 5.94553 44.6973 6.03113 44.6973C6.06615 44.6973 6.10117 44.6973 6.1323 44.6973" stroke="#EE6F57" stroke-width="1.4876" stroke-miterlimit="10"/>
<path d="M5.7583 34.6589C5.76219 34.655 5.76997 34.655 5.77387 34.655C5.88671 34.655 6.00344 34.6511 6.12017 34.6511C6.12406 34.6511 6.12795 34.6511 6.13184 34.6511C6.15519 34.6511 6.17853 34.6511 6.19799 34.6511C10.5054 34.6511 14.3536 36.607 16.9023 39.6762" stroke="#EE6F57" stroke-width="1.4876" stroke-miterlimit="10"/>
<path d="M5.7583 44.6935C5.78554 44.6935 5.81278 44.6935 5.84001 44.6935C5.9334 44.6974 6.02678 44.6974 6.12017 44.6974C6.12406 44.6974 6.12795 44.6974 6.13184 44.6974C6.15519 44.6974 6.17853 44.6974 6.19799 44.6974C10.5054 44.6974 14.3536 42.7453 16.9023 39.6762C18.8984 37.2719 20.0968 34.1873 20.0968 30.8243" stroke="#EE6F57" stroke-width="1.4876" stroke-miterlimit="10"/>
<path d="M13.8871 20.8206L13.5953 19.0734L11.2529 4.94531C11.249 4.91052 11.2412 4.87573 11.2373 4.84094" stroke="#EE6F57" stroke-width="0.557849" stroke-miterlimit="10"/>
<path d="M15.8092 1.07214L13.8014 1.4123C13.7975 1.4123 13.7975 1.4123 13.7975 1.4123L13.7041 1.42776" stroke="#EE6F57" stroke-width="0.557849" stroke-miterlimit="10"/>
<path d="M26.5445 1.20358L24.136 0.940735" stroke="#EE6F57" stroke-width="0.557849" stroke-miterlimit="10"/>
<path d="M25.856 21.1453C25.856 21.1376 25.856 21.1299 25.8598 21.1221L25.9065 20.8554C25.9104 20.8516 25.9104 20.8438 25.9104 20.84C25.9104 20.8322 25.9104 20.8284 25.9143 20.8206L28.8365 4.95693V4.95307L28.926 4.47762C28.926 4.47375 28.926 4.47375 28.926 4.47375" stroke="#EE6F57" stroke-width="0.557849" stroke-miterlimit="10"/>
<path d="M13.7975 1.41235C13.7664 1.41622 13.7352 1.42008 13.7041 1.42782C12.2839 1.67907 11.2061 2.91987 11.2061 4.41192C11.2061 4.55881 11.2138 4.70183 11.2372 4.84099C11.2411 4.87577 11.245 4.91056 11.2527 4.94535" stroke="#EE6F57" stroke-width="0.557849" stroke-miterlimit="10"/>
<path d="M28.8368 4.9569C28.8406 4.95303 28.8406 4.94917 28.8406 4.9453C28.8834 4.79069 28.9107 4.63607 28.9262 4.47372C28.9379 4.36936 28.9418 4.26885 28.9418 4.16449C28.9418 2.71109 27.9146 1.49348 26.5449 1.19971" stroke="#EE6F57" stroke-width="0.557849" stroke-miterlimit="10"/>
<path d="M20.0974 30.8244V25.9655" stroke="#EE6F57" stroke-width="1.4876" stroke-miterlimit="10"/>
<path d="M25.9142 20.8206C25.9142 20.8283 25.9103 20.8322 25.9103 20.8399C25.9103 20.8438 25.9103 20.8515 25.9103 20.8554C25.8948 20.9443 25.8792 21.0332 25.8597 21.1221C25.8597 21.1299 25.8558 21.1376 25.8558 21.1453C25.2916 23.8395 22.9414 25.8766 20.0971 25.9655C20.0309 25.9694 19.9687 25.9694 19.9025 25.9694C16.8597 25.9694 14.3344 23.7351 13.887 20.8206" stroke="#EE6F57" stroke-width="1.8595" stroke-miterlimit="10"/>
<path d="M16.9026 39.6761C22.0077 44.6973 26.5524 46 31.6614 46C38.0894 46 42.5407 41.632 46.4162 37.1095" stroke="#EE6F57" stroke-width="1.4876" stroke-miterlimit="10"/>
<path d="M44.5954 31.7559C45.3619 30.403 46.8172 29.4908 48.4865 29.4908C50.1207 29.4908 51.5487 30.3644 52.3269 31.6747H51.3814C50.7083 30.8166 49.6616 30.2677 48.4865 30.2677C47.2997 30.2677 46.2452 30.8282 45.5721 31.6979C45.0896 32.3164 44.8016 33.0972 44.8016 33.9476C44.8016 34.7941 45.0896 35.575 45.5721 36.1973C46.2452 37.067 47.2997 37.6236 48.4865 37.6236C49.6616 37.6236 50.7083 37.0747 51.3814 36.2166H52.3269C51.5487 37.527 50.1207 38.4045 48.4865 38.4045C46.8172 38.4045 45.3619 37.4922 44.5954 36.1393C44.2296 35.4938 44.0195 34.7439 44.0195 33.9476C44.0195 33.1513 44.2296 32.4014 44.5954 31.7559Z" fill="url(#paint1_linear)" stroke="#EE6F57" stroke-width="0.18595"/>
<path d="M16.113 0.279754L17.4944 0.554199C17.8835 0.631507 17.9379 1.16107 17.5761 1.31955L16.2803 1.86844C16.0313 1.97668 15.7512 1.81046 15.7239 1.54375L15.6383 0.712681H15.6344C15.6072 0.445967 15.8484 0.229503 16.113 0.279754Z" fill="url(#paint2_linear)" stroke="#EE6F57" stroke-width="0.18595"/>
<path d="M23.6225 1.74089L22.3112 1.21906C21.9454 1.07217 21.9882 0.538744 22.3734 0.45757V0.453705L23.7509 0.148336C24.0116 0.0903549 24.2567 0.302953 24.2373 0.569668L24.1711 1.40073C24.1478 1.66745 23.8715 1.84139 23.6225 1.74089Z" fill="url(#paint3_linear)" stroke="#EE6F57" stroke-width="0.18595"/>
<path d="M39.3816 23.855C38.0587 23.3138 37.0003 22.5098 36.2065 21.4507C35.4128 20.3877 34.9964 19.1082 34.9536 17.6123H40.8758C40.9653 18.4588 41.2571 19.1044 41.7552 19.5489C42.2571 19.9934 42.9069 20.2137 43.7085 20.2137C44.5334 20.2137 45.1832 20.0243 45.6618 19.6455C46.1404 19.2667 46.3778 18.741 46.3778 18.0684C46.3778 17.5041 46.1871 17.0402 45.8097 16.673C45.4283 16.3058 44.9614 16.0004 44.4089 15.7608C43.8564 15.525 43.0704 15.2544 42.0509 14.949C40.5723 14.4929 39.37 14.0407 38.4361 13.5845C37.5023 13.1284 36.7007 12.4597 36.0275 11.5707C35.3583 10.6816 35.0198 9.52199 35.0198 8.09178C35.0198 5.96966 35.7902 4.30753 37.3311 3.10152C38.8719 1.89937 40.8797 1.30023 43.3505 1.30023C45.868 1.30023 47.8953 1.89937 49.4361 3.10152C50.977 4.30753 51.8019 5.97739 51.9108 8.1227H45.8914C45.8447 7.38827 45.5762 6.80846 45.0781 6.38713C44.5762 5.96193 43.9381 5.7532 43.156 5.7532C42.4828 5.7532 41.942 5.93101 41.5295 6.28663C41.1171 6.64611 40.9108 7.16021 40.9108 7.8328C40.9108 8.56723 41.2571 9.14317 41.9536 9.55291C42.6462 9.96651 43.7318 10.411 45.2066 10.8865C46.6813 11.3851 47.8797 11.8606 48.8019 12.3167C49.7241 12.7728 50.5217 13.4338 51.1949 14.2996C51.868 15.1655 52.2027 16.2787 52.2027 17.6471C52.2027 18.9459 51.8719 20.1287 51.2105 21.1878C50.549 22.2508 49.5879 23.0935 48.3311 23.7236C47.0743 24.3536 45.5879 24.6667 43.8719 24.6667C42.1988 24.6667 40.7046 24.3961 39.3816 23.855Z" fill="#4E4D4D"/>
</g>
<defs>
<linearGradient id="paint0_linear" x1="46.2639" y1="33.9444" x2="52.0132" y2="36.6165" gradientUnits="userSpaceOnUse">
<stop stop-color="#EE6F57"/>
<stop offset="1" stop-color="#85239C"/>
</linearGradient>
<linearGradient id="paint1_linear" x1="43.966" y1="33.947" x2="55.0542" y2="38.768" gradientUnits="userSpaceOnUse">
<stop stop-color="#EE6F57"/>
<stop offset="1" stop-color="#85239C"/>
</linearGradient>
<linearGradient id="paint2_linear" x1="15.5805" y1="1.0871" x2="18.1792" y2="2.679" gradientUnits="userSpaceOnUse">
<stop stop-color="#EE6F57"/>
<stop offset="1" stop-color="#85239C"/>
</linearGradient>
<linearGradient id="paint3_linear" x1="22.0067" y1="0.953694" x2="24.6023" y2="2.53913" gradientUnits="userSpaceOnUse">
<stop stop-color="#EE6F57"/>
<stop offset="1" stop-color="#85239C"/>
</linearGradient>
<clipPath id="clip0">
<rect width="99" height="47" fill="white"/>
</clipPath>
</defs>
</svg>
